<svg width="18" height="20" viewBox="0 0 18 20" fill="none" xmlns="http://www.w3.org/2000/svg">
<path d="M11.0387 3.49805H1.74115C0.868737 3.49805 0.160156 4.20663 0.160156 5.07904V18.4192C0.160156 19.2916 0.868737 20.0002 1.74115 20.0002H11.0387C11.9111 20.0002 12.6197 19.2916 12.6197 18.4192V5.07904C12.6156 4.20663 11.907 3.49805 11.0387 3.49805ZM11.5097 18.4151C11.5097 18.6772 11.2968 18.8902 11.0346 18.8902H1.73706C1.47492 18.8902 1.26194 18.6772 1.26194 18.4151V5.07904C1.26194 4.81691 1.47492 4.60392 1.73706 4.60392H11.0346C11.2968 4.60392 11.5097 4.81691 11.5097 5.07904V18.4151Z" fill="#C4C4C4"/>
<path d="M16.2604 0H6.96283C6.09042 0 5.38184 0.708581 5.38184 1.581C5.38184 1.88818 5.62759 2.13393 5.93477 2.13393C6.24196 2.13393 6.48771 1.88818 6.48771 1.581C6.48771 1.31886 6.7007 1.10588 6.96283 1.10588H16.2604C16.5225 1.10588 16.7355 1.31886 16.7355 1.581V14.9212C16.7355 15.1833 16.5225 15.3963 16.2604 15.3963C15.9532 15.3963 15.7075 15.642 15.7075 15.9492C15.7075 16.2564 15.9532 16.5021 16.2604 16.5021C17.1328 16.5021 17.8414 15.7936 17.8414 14.9212V1.581C17.8414 0.708581 17.1328 0 16.2604 0Z" fill="#C4C4C4"/>
</svg>
