<svg width="20" height="20" viewBox="0 0 20 20" fill="none" xmlns="http://www.w3.org/2000/svg">
<path d="M18.2692 4.80771V3.46094C18.2692 2.50659 17.4928 1.73017 16.5385 1.73017H8.4385L8.13623 1.23655C8.03135 1.06532 7.84504 0.960938 7.64423 0.960938H1.73077C0.776423 0.960938 0 1.73736 0 2.69171V17.3071C0 18.2614 0.776423 19.0379 1.73077 19.0379H18.2692C19.2236 19.0379 20 18.2614 20 17.3071V6.53848C20 5.58413 19.2236 4.80771 18.2692 4.80771ZM16.5385 2.88401C16.8566 2.88401 17.1154 3.14282 17.1154 3.46094V4.80709H10.3228L9.55073 3.54628L9.14512 2.88401H16.5385ZM18.8462 17.3071C18.8462 17.6252 18.5873 17.884 18.2692 17.884H1.73077C1.41265 17.884 1.15385 17.6252 1.15385 17.3071V2.69171C1.15385 2.37359 1.41265 2.11478 1.73077 2.11478H7.32104L7.62327 2.60828C7.62331 2.60832 7.62331 2.60836 7.62335 2.6084L8.73554 4.42451L9.50804 5.68594C9.61292 5.85717 9.79923 5.96155 10 5.96155H18.2693C18.5874 5.96155 18.8462 6.22036 18.8462 6.53848V17.3071H18.8462Z" fill="#C4C4C4"/>
</svg>
