<svg width="27" height="22" viewBox="0 0 27 22" fill="none" xmlns="http://www.w3.org/2000/svg">
<path d="M4.18066 4.33339V3C4.18066 1.89543 5.07609 1 6.18066 1H11.6124C12.0961 1 12.5634 1.17528 12.9277 1.49337L14.5248 2.88762C14.8892 3.20571 15.3564 3.38099 15.8401 3.38099H23.9992C25.1038 3.38099 25.9992 4.27642 25.9992 5.38099V15.6669C25.9992 16.7715 25.1038 17.6669 23.9992 17.6669H22.8173" stroke="#7D7D7D" stroke-linecap="round" stroke-linejoin="round"/>
<path d="M1 18.9999V6.33301C1 5.22844 1.89543 4.33301 3 4.33301H8.43176C8.91543 4.33301 9.38272 4.50828 9.74708 4.82637L11.3441 6.22063C11.7085 6.53872 12.1758 6.714 12.6594 6.714H20.8185C21.9231 6.714 22.8185 7.60943 22.8185 8.714V18.9999C22.8185 20.1045 21.9231 20.9999 20.8185 20.9999H3C1.89543 20.9999 1 20.1045 1 18.9999Z" stroke="#7D7D7D" stroke-linecap="round" stroke-linejoin="round"/>
</svg>
