<svg width="22" height="22" viewBox="0 0 22 22" fill="none" xmlns="http://www.w3.org/2000/svg">
<path d="M1.82716 8.31455L10.5848 1.48939C10.9523 1.20297 11.4689 1.20833 11.8304 1.50231L20.2706 8.36599C20.6805 8.69935 20.7603 9.29409 20.4529 9.72378L19.0591 11.6714C18.9376 11.8412 18.8723 12.0447 18.8723 12.2534V20C18.8723 20.5523 18.4246 21 17.8723 21H14.766C14.2137 21 13.766 20.5523 13.766 20V15.2196C13.766 14.6673 13.3182 14.2196 12.766 14.2196H9.65957C9.10729 14.2196 8.65957 14.6673 8.65957 15.2196V20C8.65957 20.5523 8.21186 21 7.65957 21H4.55319C4.00091 21 3.55319 20.5523 3.55319 20V12.3029C3.55319 12.0639 3.46758 11.8327 3.31186 11.6514L1.6832 9.75479C1.31124 9.32164 1.37683 8.66551 1.82716 8.31455Z" stroke="#7D7D7D" stroke-linecap="round" stroke-linejoin="round"/>
</svg>
