<svg width="23" height="20" viewBox="0 0 23 20" fill="none" xmlns="http://www.w3.org/2000/svg">
<path d="M8.45814 5.26404L8.45845 5.26421L16.0851 9.4998L16.0853 9.49991C16.2965 9.6171 16.3671 9.77203 16.3671 9.86594C16.3671 9.95988 16.2966 10.1148 16.0853 10.232L16.0851 10.2321L8.45845 14.4677L8.45818 14.4679C8.19061 14.6167 7.83555 14.5903 7.60529 14.4169L7.60523 14.4168C7.39159 14.256 7.35692 14.0331 7.44834 13.8579L7.45683 13.8416L7.4641 13.8247L8.8693 10.5693C8.87595 10.5539 8.88798 10.5275 8.90244 10.4958C8.93251 10.4297 8.97308 10.3406 8.99764 10.2795C9.02697 10.2065 9.09142 10.0389 9.09142 9.86818C9.09142 9.73402 9.0672 9.62645 9.02648 9.52171C9.0101 9.47958 8.99131 9.43873 8.97725 9.40818L8.97682 9.40724L8.97347 9.39996C8.95914 9.36883 8.94538 9.33894 8.92984 9.30284C8.86079 9.14236 7.78562 6.65192 7.52213 6.04159C7.49623 5.98161 7.47824 5.94328 7.46429 5.91357C7.44586 5.87432 7.43449 5.85009 7.42127 5.81082C7.36873 5.6548 7.41254 5.46021 7.60525 5.31507L7.60526 5.31507C7.83558 5.1416 8.19065 5.11524 8.45814 5.26404Z" stroke="#7D7D7D"/>
<rect x="0.5" y="0.5" width="22" height="19" rx="3.5" stroke="#7D7D7D"/>
</svg>
