<svg width="24" height="22" viewBox="0 0 24 22" fill="none" xmlns="http://www.w3.org/2000/svg">
<path d="M4.93192 4.07443C5.53993 6.29057 4.72485 7.56377 2.6517 8.03533C2.39882 8.09285 2.16599 8.22987 2.01765 8.4426C0.686721 10.3513 0.64154 11.5225 1.99871 13.5255C2.15731 13.7595 2.41625 13.9032 2.69478 13.9518C4.8683 14.3312 5.28356 15.613 4.87383 17.5961C4.83429 17.7875 4.8435 17.9883 4.91398 18.1706C5.7393 20.305 6.61268 20.9155 9.00236 20.9914C9.31052 21.0012 9.60011 20.8546 9.80369 20.623C11.3389 18.8771 12.5867 19.0519 13.8648 20.5996C14.0671 20.8445 14.3621 21.0036 14.6796 20.9944C16.9298 20.9285 17.9046 20.2702 18.7564 18.148C18.824 17.9797 18.8389 17.7945 18.8098 17.6156C18.4437 15.3657 18.8701 14.3169 20.9572 13.955C21.2441 13.9053 21.5076 13.752 21.6626 13.5054C22.9256 11.4967 22.9194 10.1857 21.6011 8.36715C21.4804 8.20064 21.3046 8.08143 21.1098 8.01553C18.8077 7.23668 18.2678 6.26705 18.7643 4.05273C18.8195 3.80637 18.7917 3.54466 18.6649 3.32632C17.6372 1.5561 16.6779 1.02309 14.6371 1.00074C14.3436 0.997527 14.0706 1.13837 13.8716 1.35421C12.4219 2.92719 11.1088 2.80912 9.81697 1.38932C9.60365 1.15487 9.30408 1.00679 8.98774 1.02684C6.69686 1.17203 5.83393 1.82588 5.00836 3.29756C4.87635 3.53288 4.86053 3.81422 4.93192 4.07443Z" stroke="#7D7D7D" stroke-linecap="round" stroke-linejoin="round"/>
<path d="M15.0857 10.8219C15.0857 12.6728 13.5964 14.1673 11.7665 14.1673C9.93654 14.1673 8.44727 12.6728 8.44727 10.8219C8.44727 8.97112 9.93654 7.47656 11.7665 7.47656C13.5964 7.47656 15.0857 8.97112 15.0857 10.8219Z" stroke="#7D7D7D"/>
</svg>
