<svg width="19" height="19" viewBox="0 0 19 19" fill="none" xmlns="http://www.w3.org/2000/svg">
<path d="M17.1749 1.16862C16.0731 0.0668409 14.2869 0.0668409 13.1851 1.16862L2.00031 12.3534C1.92366 12.4301 1.86831 12.5251 1.83941 12.6294L0.36858 17.9394C0.308092 18.1571 0.36956 18.3903 0.529231 18.5502C0.689146 18.7099 0.922285 18.7713 1.14 18.7111L6.45003 17.24C6.55435 17.2111 6.64937 17.1558 6.72602 17.0791L17.9106 5.89409C19.0106 4.79158 19.0106 3.00679 17.9106 1.90428L17.1749 1.16862ZM3.36632 12.7609L12.5202 3.60678L15.4724 6.55897L6.31827 15.7131L3.36632 12.7609ZM2.77662 13.9442L5.13519 16.303L1.87272 17.207L2.77662 13.9442ZM17.024 5.00757L16.3592 5.67246L13.4067 2.72002L14.0719 2.05513C14.6838 1.44314 15.6762 1.44314 16.2881 2.05513L17.024 2.79079C17.6351 3.40352 17.6351 4.39509 17.024 5.00757Z" fill="#7D7D7D"/>
</svg>
