<svg width="100" height="120" viewBox="0 0 100 120" fill="none" xmlns="http://www.w3.org/2000/svg">
<path d="M59.8006 5.77778L52.9814 1.00598C51.2601 -0.19853 48.9694 -0.198529 47.2481 1.00598L2.13334 32.5756C0.796327 33.5112 0 35.0404 0 36.6722V83.3278C0 84.9596 0.796327 86.4888 2.13334 87.4244L47.248 118.994C48.9694 120.199 51.26 120.199 52.9814 118.994L55.5555 117.193V62.9705L88.858 39.6667L88.8889 39.645V39.6883V53.2006V53.2439V66.7562V66.7994V80.3117V80.355L88.858 80.3333L66.6667 95.862V109.418L97.8799 87.4254C99.2092 86.4888 100 84.9642 100 83.338V35.3966C100 33.605 99.0414 31.9503 97.4872 31.0591L88.858 26.1111L44.4444 57.1901V103.477L11.3715 80.3333L11.1111 80.5155V80.1512V39.8489L11.3715 39.6667L59.8006 5.77778Z" fill="white"/>
<path d="M22.2222 74.3707V45.6293L69.4864 12.5556L79.1722 19.3333L33.3333 51.4097V82.1459L22.2222 74.3707Z" fill="white"/>
<path d="M66.6667 82.3064V68.7509L77.7778 60.9757V74.5313L66.6667 82.3064Z" fill="white"/>
</svg>
