<svg width="21" height="21" viewBox="0 0 21 21" fill="none" xmlns="http://www.w3.org/2000/svg">
<path fill-rule="evenodd" clip-rule="evenodd" d="M15.2406 8.37152C15.2406 12.1668 12.1645 15.243 8.37032 15.243C4.57615 15.243 1.5 12.1668 1.5 8.37152C1.5 4.57628 4.57615 1.5 8.37032 1.5C12.1645 1.5 15.2406 4.57628 15.2406 8.37152ZM14.3824 15.4442C14.0163 15.078 13.4344 15.0578 13.0033 15.3448C11.6767 16.2282 10.0836 16.743 8.37032 16.743C3.74752 16.743 0 12.995 0 8.37152C0 3.74806 3.74752 0 8.37032 0C12.9931 0 16.7406 3.74806 16.7406 8.37152C16.7406 10.0847 16.2261 11.6777 15.3432 13.0043C15.0563 13.4353 15.0766 14.017 15.4426 14.3831L19.7828 18.7238C20.0756 19.0167 20.0756 19.4916 19.7827 19.7845C19.4898 20.0773 19.0149 20.0773 18.722 19.7844L14.3824 15.4442Z" fill="#7D7D7D"/>
</svg>
