<svg width="26" height="26" viewBox="0 0 26 26" fill="none" xmlns="http://www.w3.org/2000/svg">
<path fill-rule="evenodd" clip-rule="evenodd" d="M13.3922 13.3921L25.1339 13.3921V12.6088L13.3922 12.6088L13.3922 0.867123H12.6089L12.6089 12.6088H0.867188L0.867188 13.3921H12.6089V25.1338H13.3922V13.3921Z" fill="#70BBF6"/>
<path d="M25.1339 13.3921V14.1421C25.5481 14.1421 25.8839 13.8063 25.8839 13.3921H25.1339ZM13.3922 13.3921V12.6421C12.978 12.6421 12.6422 12.9779 12.6422 13.3921H13.3922ZM25.1339 12.6088H25.8839C25.8839 12.1946 25.5481 11.8588 25.1339 11.8588V12.6088ZM13.3922 12.6088H12.6422C12.6422 13.023 12.978 13.3588 13.3922 13.3588V12.6088ZM13.3922 0.867123H14.1422C14.1422 0.452909 13.8064 0.117123 13.3922 0.117123V0.867123ZM12.6089 0.867123V0.117123C12.1946 0.117123 11.8589 0.452909 11.8589 0.867123H12.6089ZM12.6089 12.6088V13.3588C13.0231 13.3588 13.3589 13.023 13.3589 12.6088H12.6089ZM0.867188 12.6088V11.8588C0.452974 11.8588 0.117188 12.1946 0.117188 12.6088H0.867188ZM0.867188 13.3921H0.117188C0.117188 13.8063 0.452974 14.1421 0.867188 14.1421L0.867188 13.3921ZM12.6089 13.3921H13.3589C13.3589 12.9779 13.0231 12.6421 12.6089 12.6421V13.3921ZM12.6089 25.1338H11.8589C11.8589 25.548 12.1946 25.8838 12.6089 25.8838V25.1338ZM13.3922 25.1338V25.8838C13.8064 25.8838 14.1422 25.548 14.1422 25.1338H13.3922ZM25.1339 12.6421L13.3922 12.6421V14.1421L25.1339 14.1421V12.6421ZM24.3839 12.6088V13.3921H25.8839V12.6088H24.3839ZM13.3922 13.3588L25.1339 13.3588V11.8588L13.3922 11.8588V13.3588ZM12.6422 0.867123L12.6422 12.6088H14.1422L14.1422 0.867123H12.6422ZM12.6089 1.61712H13.3922V0.117123H12.6089V1.61712ZM13.3589 12.6088L13.3589 0.867123H11.8589L11.8589 12.6088H13.3589ZM0.867188 13.3588H12.6089V11.8588H0.867188L0.867188 13.3588ZM1.61719 13.3921L1.61719 12.6088H0.117188L0.117188 13.3921H1.61719ZM12.6089 12.6421H0.867188L0.867188 14.1421H12.6089V12.6421ZM13.3589 25.1338V13.3921H11.8589V25.1338H13.3589ZM13.3922 24.3838H12.6089V25.8838H13.3922V24.3838ZM12.6422 13.3921V25.1338H14.1422V13.3921H12.6422Z" fill="#70BBF6"/>
</svg>
