<svg width="22" height="20" viewBox="0 0 22 20" fill="none" xmlns="http://www.w3.org/2000/svg">
<path d="M2.76438 11.0817L10.349 18.2067C10.6407 18.4807 10.7865 18.6177 10.9629 18.6308C10.9876 18.6326 11.0124 18.6326 11.0371 18.6308C11.2135 18.6177 11.3593 18.4807 11.651 18.2067L19.2356 11.0817C21.3696 9.07701 21.6288 5.77811 19.834 3.4648L19.4965 3.02983C17.3494 0.26245 13.0396 0.726561 11.5309 3.88762C11.3178 4.33414 10.6822 4.33414 10.4691 3.88762C8.9604 0.72656 4.65061 0.262453 2.5035 3.02983L2.16602 3.4648C0.371216 5.77811 0.630367 9.07701 2.76438 11.0817Z" stroke="#C4C4C4" stroke-width="1.2"/>
</svg>
