<svg width="16" height="18" viewBox="0 0 16 18" fill="none" xmlns="http://www.w3.org/2000/svg">
<path d="M5.5 12H2.75245C2.518 12 2.40078 12 2.30205 12.0098C1.35403 12.1041 0.604114 12.854 0.50982 13.802C0.5 13.9008 0.5 14.018 0.5 14.2525V14.2525C0.5 14.5322 0.5 14.6721 0.512441 14.7831C0.633212 15.8608 1.5909 16.646 2.67139 16.553C2.78269 16.5435 2.91986 16.516 3.19419 16.4612L3.49029 16.4019C3.87076 16.3258 4.06099 16.2878 4.2215 16.2257C4.8765 15.9724 5.35063 15.394 5.4706 14.7021C5.5 14.5325 5.5 14.3385 5.5 13.9505V5.27922C5.5 3.70946 5.5 2.92459 5.95332 2.37163C6.40663 1.81867 7.17627 1.66475 8.71554 1.35689L10.7155 0.956893C12.9291 0.51417 14.036 0.292809 14.768 0.892924C15.5 1.49304 15.5 2.62176 15.5 4.87922V5M15.5 10V11.9505C15.5 12.3385 15.5 12.5325 15.4706 12.7021C15.3506 13.394 14.8765 13.9724 14.2215 14.2257C14.061 14.2878 13.8708 14.3258 13.4903 14.4019L13.1942 14.4612C12.9199 14.516 12.7827 14.5435 12.6714 14.553C11.5909 14.646 10.6332 13.8608 10.5124 12.7831C10.5 12.6721 10.5 12.5322 10.5 12.2525V12.2525C10.5 12.018 10.5 11.9008 10.5098 11.802C10.6041 10.854 11.354 10.1041 12.302 10.0098C12.4008 10 12.518 10 12.7525 10H15.5ZM15.5 10V5M15.5 5L5.5 7" stroke="#70BBF6"/>
</svg>
