<svg width="20" height="20" viewBox="0 0 20 20" fill="none" xmlns="http://www.w3.org/2000/svg">
<circle cx="10" cy="10" r="9.5" fill="white" stroke="white"/>
<path fill-rule="evenodd" clip-rule="evenodd" d="M7.43338 13.2958C7.43403 13.2964 7.43403 13.2975 7.43338 13.2981C7.43273 13.2988 7.43273 13.2998 7.43338 13.3005L8.57215 14.4414C8.65029 14.5196 8.77713 14.5196 8.85526 14.4414L15.9413 7.34208C16.0192 7.264 16.0192 7.13757 15.9413 7.0595L14.9424 6.05871C14.8642 5.98043 14.7374 5.98043 14.6593 6.05871L8.85765 11.8712C8.7795 11.9495 8.65263 11.9495 8.5745 11.8711L5.3402 8.62872C5.26205 8.55038 5.13515 8.55038 5.057 8.62872L4.0584 9.62982C3.98053 9.70789 3.98053 9.83425 4.0584 9.91231L7.43338 13.2958Z" fill="#70BBF6"/>
</svg>
