<svg width="23" height="20" viewBox="0 0 23 20" fill="none" xmlns="http://www.w3.org/2000/svg">
<path d="M13.5847 15.0326L21.5169 15.0326M17.5507 18.9986L17.5508 11.0664" stroke="#C4C4C4"/>
<path d="M21.1354 10.9104V7.60693C21.1354 4.49239 21.1354 2.93512 20.1525 1.96756C19.1696 1 17.5876 1 14.4236 1H7.7118C4.54783 1 2.96584 1 1.98292 1.96756C1 2.93512 1 4.49239 1 7.60693V12.0115C1 15.1261 1 16.6833 1.98292 17.6509C2.96584 18.6185 4.54783 18.6185 7.7118 18.6185H12.1863" stroke="#C4C4C4"/>
<path d="M6.0332 1V1C7.11103 1 7.64994 1 8.09669 1.24287C8.15293 1.27344 8.20766 1.30669 8.26071 1.34251C8.68212 1.62708 8.93046 2.10537 9.42714 3.06193L10.7216 5.55506C11.2669 6.60526 11.5396 7.13036 12.0181 7.42108C12.4966 7.7118 13.0883 7.7118 14.2716 7.7118H17.7789C19.0464 7.7118 19.6802 7.7118 20.1501 7.98868C20.4422 8.1608 20.6857 8.40437 20.8579 8.69649C21.1348 9.16639 21.1348 9.80016 21.1348 11.0677V11.0677" stroke="#C4C4C4"/>
</svg>
