<svg width="18" height="16" viewBox="0 0 18 16" fill="none" xmlns="http://www.w3.org/2000/svg">
<path d="M1 6.25C1 3.77513 1 2.53769 1.76884 1.76884C2.53769 1 3.77513 1 6.25 1H11.5C13.9749 1 15.2123 1 15.9812 1.76884C16.75 2.53769 16.75 3.77513 16.75 6.25V9.75C16.75 12.2249 16.75 13.4623 15.9812 14.2312C15.2123 15 13.9749 15 11.5 15H6.25C3.77513 15 2.53769 15 1.76884 14.2312C1 13.4623 1 12.2249 1 9.75V6.25Z" stroke="#70BBF6"/>
<path d="M5.375 1V1C5.87175 1 6.12012 1 6.34521 1.05274C6.76875 1.15199 7.14838 1.38661 7.42656 1.72105C7.5744 1.89879 7.68547 2.12095 7.90762 2.56525L8.64443 4.03885C9.18234 5.11469 9.4513 5.6526 9.93461 5.9513C10.4179 6.25 11.0193 6.25 12.2221 6.25H12.75C14.6356 6.25 15.5784 6.25 16.1642 6.83579C16.75 7.42157 16.75 8.36438 16.75 10.25V11.5" stroke="#70BBF6"/>
</svg>
