<svg width="18" height="16" viewBox="0 0 18 16" fill="none" xmlns="http://www.w3.org/2000/svg">
<path d="M2.13698 8.73474L8.45753 14.6722C8.64539 14.8487 8.73932 14.9369 8.84591 14.9715C8.94607 15.0039 9.05393 15.0039 9.15409 14.9715C9.26068 14.9369 9.35461 14.8487 9.54247 14.6722L15.863 8.73474C17.6414 7.06417 17.8573 4.31509 16.3616 2.38734L16.0804 2.02486C14.2912 -0.281291 10.6997 0.105467 9.44242 2.73968C9.26483 3.11178 8.73517 3.11178 8.55758 2.73968C7.30034 0.105468 3.70884 -0.281294 1.91959 2.02485L1.63835 2.38733C0.142681 4.31509 0.358638 7.06417 2.13698 8.73474Z" stroke="#70BBF6"/>
</svg>
