<svg width="22" height="20" viewBox="0 0 22 20" fill="none" xmlns="http://www.w3.org/2000/svg">
<path d="M21.25 11.125V7.75C21.25 4.56802 21.25 2.97703 20.2615 1.98851C19.273 1 17.682 1 14.5 1H7.75C4.56802 1 2.97703 1 1.98851 1.98851C1 2.97703 1 4.56802 1 7.75V12.25C1 15.432 1 17.023 1.98851 18.0115C2.97703 19 4.56802 19 7.75 19H12.25" stroke="#C4C4C4"/>
<path d="M6.625 1V1C7.60899 1 8.10099 1 8.51622 1.20268C8.63552 1.26091 8.74873 1.33088 8.85417 1.41154C9.22115 1.6923 9.44118 2.13235 9.88123 3.01246L11.1444 5.53885C11.6823 6.61469 11.9513 7.1526 12.4346 7.4513C12.9179 7.75 13.5193 7.75 14.7221 7.75H17.875C19.1606 7.75 19.8035 7.75 20.2782 8.03454C20.5603 8.20363 20.7964 8.43969 20.9655 8.72179C21.25 9.19653 21.25 9.83935 21.25 11.125V11.125" stroke="#C4C4C4"/>
<path d="M15.625 17.875V13.375M15.625 13.375H20.125M15.625 13.375L20.5 18.5" stroke="#C4C4C4" stroke-linecap="round" stroke-linejoin="round"/>
</svg>
