<svg width="18" height="18" viewBox="0 0 18 18" fill="none" xmlns="http://www.w3.org/2000/svg">
<path d="M1 9C1 5.22876 1 3.34315 2.17157 2.17157C3.34315 1 5.22876 1 9 1V1C12.7712 1 14.6569 1 15.8284 2.17157C17 3.34315 17 5.22876 17 9V9C17 12.7712 17 14.6569 15.8284 15.8284C14.6569 17 12.7712 17 9 17V17C5.22876 17 3.34315 17 2.17157 15.8284C1 14.6569 1 12.7712 1 9V9Z" stroke="#70BBF6"/>
<path fill-rule="evenodd" clip-rule="evenodd" d="M14.9942 10.7308L14.9546 10.6912L14.8815 10.6181L14.8815 10.618C14.3652 10.1013 14.0122 9.748 13.6094 9.56082C12.9414 9.25039 12.1704 9.25039 11.5024 9.56082C11.0996 9.748 10.7466 10.1013 10.2303 10.618L10.1572 10.6912C9.94475 10.9036 9.80311 11.0449 9.68921 11.1443C9.57549 11.2436 9.52682 11.2668 9.50916 11.2733C9.33573 11.3366 9.14151 11.2992 9.004 11.176C8.98999 11.1634 8.95345 11.1238 8.88472 10.9894C8.8159 10.8548 8.73685 10.671 8.6185 10.3949L8.57103 10.2841L8.56228 10.2637C8.29586 9.64201 8.08397 9.1476 7.88533 8.77046C7.68418 8.38856 7.4699 8.07267 7.17403 7.84728C6.55212 7.37351 5.74439 7.21795 4.99101 7.42687C4.6326 7.52626 4.31632 7.73997 3.98773 8.01985C3.70869 8.25752 3.38836 8.57205 3 8.95961C3 8.9729 3 8.98622 3 8.99957C3 9.50028 3.00028 9.95534 3.00283 10.3709L3.49603 9.87767C3.99353 9.38017 4.34576 9.02847 4.63615 8.78113C4.92598 8.53426 5.1092 8.43183 5.25823 8.39051C5.71026 8.26516 6.1949 8.35849 6.56804 8.64275C6.69106 8.73647 6.82313 8.89962 7.00055 9.23647C7.17831 9.57397 7.37474 10.0313 7.65189 10.678L7.69936 10.7888L7.70612 10.8046C7.81593 11.0608 7.90821 11.2761 7.99436 11.4446C8.08238 11.6168 8.18597 11.7857 8.33667 11.9207C8.7492 12.2904 9.33186 12.4026 9.85216 12.2126C10.0422 12.1432 10.2012 12.0248 10.3468 11.8977C10.4894 11.7732 10.655 11.6075 10.8522 11.4104L10.8643 11.3983C11.4827 10.7799 11.7032 10.5702 11.9238 10.4677C12.3246 10.2814 12.7872 10.2814 13.188 10.4677C13.4086 10.5702 13.6291 10.7799 14.2475 11.3983L14.9583 12.1091C14.9784 11.7066 14.9888 11.2519 14.9942 10.7308Z" fill="#70BBF6"/>
<circle cx="12.9993" cy="5.00033" r="1.33333" fill="#70BBF6"/>
</svg>
