<svg width="22" height="22" viewBox="0 0 22 22" fill="none" xmlns="http://www.w3.org/2000/svg">
<path d="M1 12.1111V9C1 5.22876 1 3.34315 2.17157 2.17157C3.34315 1 5.22876 1 9 1H13C16.7712 1 18.6569 1 19.8284 2.17157C21 3.34315 21 5.22876 21 9V13C21 16.7712 21 18.6569 19.8284 19.8284C18.6569 21 16.7712 21 13 21H11" stroke="#C4C4C4"/>
<path fill-rule="evenodd" clip-rule="evenodd" d="M18.9998 13.8465L18.0766 12.9233L18.04 12.8867C17.7931 12.6397 17.6271 12.4737 17.473 12.3605C16.3462 11.5332 14.76 11.7906 13.9526 12.9318C13.8421 13.0879 13.7372 13.2979 13.5811 13.6102L13.5579 13.6566C13.452 13.8684 13.4257 13.9172 13.4088 13.9408C13.2385 14.1784 12.9017 14.2198 12.6788 14.0307C12.6567 14.0119 12.6194 13.9709 12.4653 13.7911L6.93628 7.34063C6.75657 7.13097 6.44092 7.10669 6.23125 7.2864C6.02159 7.46611 5.99731 7.78176 6.17702 7.99142L11.706 14.4419L11.7324 14.4727L11.7324 14.4727C11.8453 14.6047 11.9399 14.7151 12.0316 14.793C12.7001 15.3605 13.7107 15.2361 14.2216 14.5234C14.2917 14.4256 14.3566 14.2955 14.4342 14.1401L14.4523 14.1038C14.6401 13.7283 14.7087 13.5944 14.7689 13.5093C15.2534 12.8246 16.2051 12.6702 16.8811 13.1666C16.9651 13.2282 17.0726 13.3335 17.3695 13.6304L18.9872 15.2481C18.9955 14.8312 18.9986 14.3671 18.9998 13.8465Z" fill="#C4C4C4"/>
<ellipse cx="16.0007" cy="6.00065" rx="1.66667" ry="1.66667" fill="#C4C4C4"/>
<path d="M7.05664 20.9999C7.05664 21.276 6.83278 21.4999 6.55664 21.4999C6.2805 21.4999 6.05664 21.276 6.05664 20.9999H7.05664ZM6.55664 15.4443V14.9443H7.05664V15.4443H6.55664ZM1.00109 15.9443C0.724944 15.9443 0.501086 15.7205 0.501086 15.4443C0.501086 15.1682 0.724944 14.9443 1.00109 14.9443V15.9443ZM1.33557 20.816C1.13031 21.0007 0.814169 20.9841 0.629439 20.7788C0.44471 20.5736 0.461349 20.2574 0.666604 20.0727L1.33557 20.816ZM6.05664 20.9999V15.4443H7.05664V20.9999H6.05664ZM6.55664 15.9443H1.00109V14.9443H6.55664V15.9443ZM6.89112 15.816L1.33557 20.816L0.666604 20.0727L6.22216 15.0727L6.89112 15.816Z" fill="#C4C4C4"/>
</svg>
