<svg width="15" height="15" viewBox="0 0 15 15" fill="none" xmlns="http://www.w3.org/2000/svg">
<path d="M2.6534 13.9568L2.86636 14.3827L2.6534 13.9568ZM13.5815 6.78907L13.7944 6.36315L13.5815 6.78907ZM13.5815 8.49274L13.7944 8.91866L13.5815 8.49274ZM2.6534 1.32503L2.86636 0.899108L2.6534 1.32503ZM2.86636 0.899108L13.7944 6.36315L13.3685 7.21499L2.44044 1.75094L2.86636 0.899108ZM13.7944 8.91866L2.86636 14.3827L2.44044 13.5309L13.3685 8.06682L13.7944 8.91866ZM1.47563 2.34723V12.9346H0.523252V2.34723H1.47563ZM2.86636 14.3827C1.78985 14.921 0.523252 14.1381 0.523252 12.9346H1.47563C1.47563 13.4302 1.99717 13.7525 2.44044 13.5309L2.86636 14.3827ZM13.7944 6.36315C14.8474 6.88961 14.8474 8.39219 13.7944 8.91866L13.3685 8.06682C13.7195 7.89133 13.7195 7.39047 13.3685 7.21499L13.7944 6.36315ZM2.44044 1.75094C1.99717 1.52931 1.47563 1.85164 1.47563 2.34723H0.523252C0.523252 1.14366 1.78985 0.360855 2.86636 0.899108L2.44044 1.75094Z" fill="#70BBF6"/>
</svg>
